<?xml version="1.0" encoding="UTF-8"?>
<svg id="_Слой_2" xmlns="http://www.w3.org/2000/svg" xmlns:xlink="http://www.w3.org/1999/xlink" version="1.1" viewBox="0 0 185.39 185.39">
  <!-- Generator: Adobe Illustrator 30.1.0, SVG Export Plug-In . SVG Version: 2.1.1 Build 136)  -->
  <defs>
    <style>
      .st0, .st1 {
        fill: #e5231d;
      }

      .st2, .st3 {
        fill: #c1272d;
      }

      .st2, .st1, .st4 {
        display: none;
      }

      .st5 {
        fill: #fcc240;
      }

      .st6 {
        fill: url(#_Безымянный_градиент_68);
      }

      .st7 {
        fill: #fba858;
      }
    </style>
    <linearGradient id="_Безымянный_градиент_68" data-name="Безымянный градиент 68" x1="92.38" y1="51.55" x2="131.03" y2="51.55" gradientUnits="userSpaceOnUse">
      <stop offset="0" stop-color="#f7a400"/>
      <stop offset="1" stop-color="#ee7221"/>
    </linearGradient>
  </defs>
  <path class="st5" d="M92.38,38.47s-7.88,6.19-21.52,22.94c14.26-2.25,32.67-1.19,32.67-1.19l-11.14-21.75h-.01Z"/>
  <path class="st3" d="M76.31,60.71s2.39-4.86,8.79-10.71c0,0-2.7,3.59-5.05,10.39l-3.74.32h0Z"/>
  <path class="st6" d="M92.38,38.47l38.65,26.16s-11.03-3.54-27.52-4.42l-11.14-21.75h0Z"/>
  <path class="st0" d="M92.38,38.47s-40.56,26.6-42.99,28.46-3.23,2.67-2.98,3.29,2.05,2.23,4.96,2.97,7.67.92,12.08,1.29c0,0-6.6-3.97-4.2-4.96.97-.4,5.4,3.29,8.68,4.53s8.01,1.43,8.01,1.43c0,0-11.58-6.55-9.24-7.13,1.34-.33,2.61.41,3.29.93,1.02.78,7.69,5.52,12.28,6.51s8.62,1.43,12.46,1.3,15.26-1.98,19.42-5.65c0,0-21.77,6.57-36.41-1.24,0,0,8.56-2.92,20.56-3.84,5.22-.4,11.66-.19,11.66-.19,0,0,7.43-.05,8.94,2.11,1,1.43-1.56,3.47-9.18,7.69,0,0,4.53.62,10.54-2.55,6.01-3.16,7.27-3.97,6.21-1.99s-1.73,2.61-3.32,3.89c0,0,9.97-.24,14.47-2.58,4.5-2.34-.87-4.45-.87-4.45,0,0-4.99-2.32-14.56-3.64s-16.27-1.83-27.68-1.87c-11.41-.04-27.68.79-40.13,3.37,0,0-3.23.49-1.13-.49s6.5-2.98,17.6-4.28c0,0,11.71-14.73,21.52-22.94h-.01Z"/>
  <g class="st4">
    <path class="st3" d="M34.04,105.08h-8.31l-1.39,4.16h-5.3l7.71-22.92h6.42l7.71,22.92h-5.46l-1.39-4.16h.01ZM32.58,100.61l-2.65-7.95-.07-.24-.07.28-2.61,7.91h5.4Z"/>
    <path class="st3" d="M41.29,102.95l5.13-.89c.46,2.13,1.65,3.03,4.24,3.03s3.71-.65,3.71-2.24-.96-2.1-5.36-2.86c-4.3-.76-7.35-2.27-7.35-6.92s3.44-7.29,8.77-7.29,7.94,2.17,8.7,6.61l-5.13.89c-.4-2.06-1.75-2.79-3.84-2.79s-3.14.83-3.14,2.03c0,1.38.83,1.89,5.23,2.72,5.16.96,7.45,2.92,7.45,7.19,0,4.78-3.34,7.36-9.27,7.36-5.59,0-8.44-2.1-9.13-6.85h-.01Z"/>
    <path class="st3" d="M62.94,86.33h5.39v22.92h-5.39s0-22.92,0-22.92Z"/>
    <path class="st3" d="M85.55,105.08h-8.31l-1.39,4.16h-5.3l7.71-22.92h6.42l7.71,22.92h-5.46l-1.39-4.16h.01ZM84.09,100.61l-2.65-7.95-.07-.24-.07.28-2.61,7.91h5.4Z"/>
    <path class="st7" d="M123.94,109.24h-4.9v-12.25l.17-4.13-4.87,16.07h-4.8l-4.87-15.97.17,4.03v12.25h-4.77v-22.92h7.38l4.63,15.52,4.57-15.52h7.28v22.92h.01Z"/>
    <path class="st7" d="M128.58,86.33h5.4v22.92h-5.4v-22.92Z"/>
    <path class="st7" d="M151.02,109.24l-4.63-7.91-4.7,7.91h-5.69l7.28-11.6-6.88-11.32h6.02l4.2,7.57,4.27-7.57h5.73l-6.88,11.22,7.28,11.7h-6Z"/>
  </g>
  <path class="st2" d="M156.92,89.8s1.29-.97,3.45.28c0,0,2.62-4.09,5.89-3.63,0,0-2.9,2.71-3.31,4-.3.93-.23,1.29,1.89,1.52,0,0-1.52,1.29-3.5.41,0,0-1.93-1.24-2.99-.41s-1.24,1.75-1.24,1.75c0,0-.37-2.76,1.98-3.08,0,0,.14-.51-2.16-.83h0Z"/>
  <g class="st4">
    <path class="st3" d="M58.83,115.71h-1.6v4.28h-.97v-4.28h-1.6v-.91h4.17v.91Z"/>
    <path class="st3" d="M62.25,118.06h-.94v1.93h-.98v-5.19h2.25c1.13,0,1.79.57,1.79,1.61,0,.8-.44,1.33-1.12,1.54l1.22,2.04h-1.12l-1.09-1.93h-.01ZM61.31,117.2h1.07c.67,0,1.01-.25,1.01-.76s-.34-.74-1.03-.74h-1.05v1.5Z"/>
    <path class="st3" d="M69.13,118.93h-2.22l-.39,1.06h-.97l1.94-5.19h1.08l1.94,5.19h-.99l-.4-1.06h0ZM68.81,118.09l-.8-2.16-.8,2.16h1.6Z"/>
    <path class="st3" d="M75.85,114.79l-1.95,5.19h-.97l-1.96-5.19h1.06l1.4,3.98,1.43-3.98h.99Z"/>
    <path class="st3" d="M80.87,119.13v.86h-3.59v-5.19h3.51v.86h-2.53v1.24h2.37v.85h-2.37v1.39h2.61Z"/>
    <path class="st3" d="M86.04,119.07v.92h-3.45v-5.19h.98v4.27h2.47Z"/>
    <path class="st3" d="M89.4,117.42c0-1.67,1-2.73,2.43-2.73,1.19,0,1.89.55,2.11,1.67l-.9.19c-.16-.69-.56-.97-1.21-.97-.83,0-1.42.63-1.42,1.81s.56,1.83,1.39,1.83c.7,0,1.08-.26,1.29-.94l.87.19c-.25,1.08-1,1.65-2.21,1.65-1.47,0-2.36-.99-2.36-2.68v-.02Z"/>
    <path class="st3" d="M95.25,117.42c0-1.67,1.04-2.73,2.54-2.73s2.52,1,2.52,2.68-1.02,2.73-2.55,2.73-2.51-1.01-2.51-2.68ZM99.29,117.41c0-1.18-.62-1.84-1.5-1.84s-1.5.64-1.5,1.81.58,1.83,1.5,1.83,1.5-.63,1.5-1.8Z"/>
    <path class="st3" d="M107.37,119.99h-.91v-3.24l.03-.66-1.34,3.82h-.91l-1.35-3.8.02.65v3.24h-.89v-5.19h1.32l1.38,3.93,1.37-3.93h1.29v5.19h0Z"/>
    <path class="st3" d="M113.54,116.45c0,1.1-.79,1.74-1.89,1.74h-1.29v1.8h-.98v-5.19h2.35c1.15,0,1.82.58,1.82,1.65h0ZM111.56,115.67h-1.21v1.64h1.21c.6,0,.97-.29.98-.83s-.38-.81-.98-.81Z"/>
    <path class="st3" d="M117.65,118.93h-2.22l-.39,1.06h-.97l1.94-5.19h1.08l1.94,5.19h-.99l-.4-1.06h0ZM117.33,118.09l-.8-2.16-.79,2.16h1.6,0Z"/>
    <path class="st3" d="M124.77,114.79v5.19h-.95l-2.46-3.67.04.68v2.99h-.94v-5.19h.97l2.42,3.59-.02-.63v-2.96s.94,0,.94,0Z"/>
    <path class="st3" d="M129.01,117.79v2.2h-.97v-2.2l-1.82-2.99h1.06l1.28,2.2,1.25-2.2h1l-1.79,2.99h-.01Z"/>
  </g>
  <path class="st2" d="M37.81,115.05s-2.45-2.83-6.66-2.3c0,0,5.43-4.29,9.26,2.3,0,0,3.52-5.36,8.8-.77,0,0-3.44-.7-6.66,1.53,0,0,6.41-.15,6.48,5.42,0,0-2.24-3.13-7.79-3.24,0,0-.11,5.92,2.78,9.13,0,0,18.42-5.19,42.42-1.5,0,0-23.32.23-32.9,3.09-9.32,2.79-17.49,5.02-20.44,3.32-.18-.1-.22-.36-.08-.51.46-.5,2.14-1.58,8.07-3.49,0,0-1.94-3-1.73-9.51,0,0-2.4.64-5.69,5.76,0,0-1.73-4.56,3.47-7.04,0,0-3.96-.99-7.21,1.52,0,0,.86-5.15,7.89-3.73v.02Z"/>
  <g>
    <path class="st0" d="M87.03,122.91l-3.94-.18-2.92-.18-2.7-.21c-3.72-.3-8.75-.87-12.31-1.91l1.51-1.06c-3.93-.83-7.77-.82-11.86-1.71,3.07-.78,6.34-.83,9.12-1.56l-.95-.13-14.4-1.65-2.62-.2,3.26-.71c6.68-1.46,13.31-2.7,20.14-3.21l2.22-.17,2.74-.17,4.39-.19,5.49-.17,15.51.02,5.82.14,3.17.16,4.16.24c7.12.41,14.13,1.22,21.1,2.81l4.96,1.13c.03.09.07.22.04.14l-3.2.2-2.25.15c-4.4.3-8.67.75-13.03,1.66l8.2,1.28c.39.06.73.13,1.09.21l-8.81,1.31-2.21.37,1.49.94c-1.74.5-3.31.85-5.1,1.12-4.34.66-8.61,1.13-13.01,1.33l-4.41.21h-10.69ZM89.17,117.96l.55,1.53h1.94s-2.77-7.23-2.77-7.23l-2.18-.04-2.81,7.24c.47.04,1.32.1,1.71-.01.46-.14.4-1.26.86-1.52l2.72.03ZM98.31,112.45l-1.92,5.29-1.75-4.97c-.06-.17-.43-.43-.51-.43l-1.59-.08,2.72,7.17c.71.11,1.49.11,2.16,0l2.77-7.11c-.57-.03-1.32-.02-1.88.13ZM70.68,119.43v-5.47s2.39-.01,2.39-.01l-.02-1.53-6.3-.03-.02,1.54,2.26.05v5.45s1.69,0,1.69,0ZM79.84,119.49l2.17-.02-1.95-2.82c1.13-.37,1.59-1.1,1.59-2.12,0-1.15-.84-2.14-2.05-2.15l-3.85-.05v7.12s1.76,0,1.76,0l.04-2.4c.11-.14.78-.04.9.15l1.39,2.28ZM107.68,116.56l-.1-1.45-2.88-.03c-.34,0-.35-1.25-.02-1.27h3.41s.04-1.47.04-1.47h-5.48s0,7.13,0,7.13h5.45s.03-1.51.03-1.51h-3.62s-.05-1.42-.05-1.42h3.21ZM116.61,117.87l-3.31.03v-5.55s-1.7.03-1.7.03v7.08s4.98,0,4.98,0l.04-1.59Z"/>
    <path class="st1" d="M82.55,58.77c.27-.17.31-.44.37-.91.47-.46.72-1.15.73-1.83.09-.08.32-.35.39-.52l.66-1.56.72-1.7c.88-.28,1.2,1.1,1.7,1.78,1.38,1.86,1.67,2.39,3.3,4.03.76.76,1.68.76,1.52,1.63h5.03c.41.09.91.19,1.28.19h4.35s-3.22-6.96-3.22-6.96l-4.44-9.47-1.16-2.48c-.41-.88-.79-1.63-1.27-2.49.08,0,.53.09.66.18l7.04,4.83,3.18,2.16,24.36,16.74c2.32,1.6,4.37,3.25,6.53,5.01.33.27.58.51.86.81-.33-.15-.57-.29-.86-.46l-1.5-.88-1.37-.8c-3.75-2.2-10.86-3.82-15.25-4.51-2.4-.38-4.69-.74-7.11-.91l-2.37-.17-3.12-.18-2.94-.18h-10.23s-4.92.21-4.92.21l-3.5.2.21-.58c.14-.38.25-.68.35-1.15Z"/>
    <path class="st1" d="M83.64,56.03c-.4.58-.67,1.22-.73,1.83-.25.24-.34.67-.37.91-.38.5-.63,1.19-.77,1.78-9.92.94-17.36,1.97-26.71,5.47-.97.36-1.85.83-2.75,1.26l-2.59,1.24c-.05-.09.03.05.08.13.51-.2.98-.4,1.49-.53,3.41-.92,6.76-1.74,10.25-2.41l1.37-.26c5.9-1.13,11.78-1.93,17.79-2.32l3.14-.2,3.46-.15,2.77-.11c2.44-.1,4.83-.11,7.28,0l4.04.17,3.83.19,2.85.22,2.09.2c7.79.75,16.61,2.53,24.01,4.92l2.04.66c.86.28,1.7.92,2.51,1.43.36.23.72.84.7,1.2-.09,2.09-7.23,3.22-8.97,3.44l-1.66.21c-.84.11-1.67.17-2.63.22,1.43-.91,2.54-1.86,3.25-3.36.16-.35.3-1.3,0-1.55-.46-.4-1.38-.06-1.83.28-4.08,3.01-8.66,4.16-13.61,5.02l-.19-.02,3.12-1.95c.94-.59,4.81-3.17,3.99-4.48-.71-1.13-3.76-1.84-5.07-2.11-6.86-1.37-11.66-1.39-18.64-1.24-2.49.05-9.56,1.17-12.06,1.81l-5.88,1.52c.79.47,1.54,1,2.4,1.42,3.54,1.73,8.92,2.95,12.85,3.2,6.23.39,11.89-.22,18.01-1.23l4.11-.68-3.38,1.38c-5.77,2.37-11.8,3.51-18.06,3.58-3.86.04-7.49-.29-11.19-1.31-3.94-1.1-7.56-2.81-10.79-5.3-1.54-1.18-3.43-2.95-5.19-1.95-1.2.68,1.16,2.89,1.87,3.43,2.57,1.94,5.43,3.32,8.49,4.12-.9.05-1.74,0-2.61-.12-5.79-.85-9.3-1.99-14.21-5.17-1.19-.77-3.33-1.84-4.48-.64-.17.18.14.79.29.97,1.65,1.96,3.72,3.19,6.05,4.27-4.96-.35-10.01-.95-14.71-2.19-.81-.21-1.66-.66-2.32-1.12-.59-.4-.59-1.27-.08-1.69.58-.48,1.2-.87,1.88-1.25l1.61-.89c.18-.1.48-.55.65-.67l5.23-3.9,8.45-5.99,3.9-2.73,23.49-16.37c-1.63,2.15-3.4,3.93-5.16,5.82l-3.52,3.8c-.25.27-.6,1.01-.61,1.4-.02,1.25,1.31,1.69,1.37,2.5l.45-.5,2.48-2.87-1.86,4.42-.71,1.7c-.14.34-.25.8-.3,1.14Z"/>
    <path class="st0" d="M55.1,97.39c-1.56-1.38-.1-3.03.57-4.26l-2.85,1.13c-.23.09-.28.83-.29,1.07l-.25,6.01c-.07,1.77.59,4.5,1.46,6.15.09.17-.03.61-.19.7-1.05.6-2.31.4-3.07-.56-2.1-2.64-1.99-8.17-1.94-11.67l-2.72,1.1-4.99,1.94c-.27.39-.6.87-.86,1.29l-2.11,3.38c-1.29,2.06-2.77,3.85-4.47,5.61-.17.18-.72.27-.91.15-.22-.13-.39-.73-.28-.96l1.87-4.07,1.58-3.51c.3-.67-1.54.55-3.36.41-2.58-.21-3.93-3.16-3.09-3.95s1.59.19,3.47-.27l4.89-1.19c.26-.06.67-.4.81-.63l2.43-4.01c2.84-4.69,5.82-9.15,9.04-13.59.38-.52,1.13-.84,1.75-.7,1.4.31,2.62.77,3.88,1.43.38.2.52.83.4,1.22-1.08,3.52-1.89,6.97-2.65,10.56-.13.62-.19,1.13-.23,1.75.47-.05.74-.06.95-.11l3.92-1.02c.65-.17,1.19-.63,1.73-1.03,1.52-1.11,3.12-2.04,4.83-2.84,1-.47,2.19-.75,3.28-.41.63.2,1.2,1,1.45,1.58s-.09,1.07-.56,1.35l-9.38,5.58c-.35.21-.63.35-.8.66l5.31.28c.58.03,1.37.36,1.89.61,1.19.57,1.74,1.79,1.46,3.09-.18.84-.7,1.66-1.35,2.27-2.06,1.91-4.47,3.32-7.17,4.14-1,.31-2.99.51-3.51-.52-.57-1.14.79-2.15,1.78-2.64l2.6-1.29c1.32-.65,2.69-1.58,3.81-2.52.14-.12.23-.76.07-.77-2.5-.19-6.18.85-8.19-.93ZM48.49,93.22c.29-.08.41-.68.44-.95l1.09-8.5-3,4.4-4.29,6.71,5.76-1.65Z"/>
    <path class="st0" d="M121.31,95.71c.41-3.54,1.37-6.06,1.92-9.52-1.31,1.89-2.4,3.73-3.44,5.77l-4.31,8.53c-.19.38-.62,1.01-.98,1.13-1.48.5-4.05-.61-4.4-2.93-.25-1.65-.3-3.3-.18-4.98l.17-2.43.34-3.87c-.53.92-1.03,1.76-1.44,2.69l-2.7,6.21-4.07,10.19c-.37.94-2.53-.24-2.84-.88-.59-1.21.58-5.05,1.15-6.37l3.03-6.96.71-1.58,2.53-5.68,2.82-6.53c.07-.16.06-.65-.06-.74l-.55-.42c2.4-.51,3.66-.79,6.02.16.55.22.92.79.82,1.32l-.33,1.79c-.9,4.93-1.62,10.03-1.91,15.04,0,.09.05.41.09.37s.19-.17.25-.29l3.96-6.68c2.02-3.41,4.11-6.51,6.43-9.69.31-.43,1.03-.96,1.52-.94,1.09.04,4.33.74,3.92,2.21l-3.76,13.42c-.77,2.75-1.39,5.39-1.6,8.24-.12,1.72.17,5.62,2.23,5.94l1.19.18c-1.16,1.13-3.98.62-5.29-.44-1.16-.94-1.66-2.31-1.88-3.77-.32-2.09.11-4.08.35-6.17l.27-2.33Z"/>
    <path class="st0" d="M87.08,98.4c.05,0-.09-.01-.17-.02-1.47,2.16-2.9,4.4-5.28,5.57-1.65.82-4.47-.45-4.94-3.2-.02-.11-.13-.36-.15-.41-.11-.28-4.35,6.21-7.69,3.57-.62-.49-1.04-1.5-.91-2.33.2-1.24.44-2.4.82-3.56l1.84-5.67c.64-1.97.09-2.81,1.03-2.98,1.72-.31,4.28.9,3.78,2.27l-1.44,3.91-1.9,5.08c-.12.32-.28,1.16-.02,1.36.82.63,4.14-2.67,4.44-3.68.86-2.93,1.96-5.6,4.25-7.75,1.05-.99,2.27-1.79,3.67-2.33,2.42-.94,5.26-.23,6.94,1.54.11.12.24.46.26.56-3.96-.67-7.11,1.72-9.23,4.87-.93,1.38-2.34,4.27-1.7,5.77.27.63,3.54-2.81,3.9-3.25,1.4-1.68,2.66-3.35,3.74-5.23.43-.76.92-1.37,1.98-1.18.85.15,3.2.71,2.5,2.01l-1.73,3.22c-.99,1.84-1.05,4.64-.25,4.27.64-.29,1.55-.96,2.06-1.59l3.3-4.07c1.28-1.58.06,5-4.28,8.02-.92.64-2.09.53-3.12,0-1.71-.89-1.97-2.67-1.67-4.77Z"/>
    <path class="st0" d="M153.92,98.08c-.04,2.71-2.55,5.41-5.15,6.21-2.14.66-4.36-.02-5.72-1.79-.56-.73-.98-1.55-1.46-2.45-1.15.96-6.19,7.08-7.49,5.48-.53-.65,1.05-2.34,1.67-3.07l3.71-4.3c.22-.26.91-.83.82-1.15-.74-2.29-1.62-4.4-2.77-6.51-.13-.23-.44-.87-.24-1.04,1.28-1.07,3.1-2.21,4.72-1.47.2.36.43.77.51,1.12l1.12,4.89c1.99-1.96,3.69-3.9,5.81-5.6.87-.7,2.43.14,2.71,1.12.07.24-.33.67-.51.85l-6.94,6.81c-.19.19-.28.67-.16.89.61,1.12,1.11,2.26,2.02,3.11s2.29.64,3.32.22c1.67-.69,2.83-1.9,4.04-3.33Z"/>
    <path class="st0" d="M136.51,97.92c-.02,2.05-2.88,4.81-4.5,5.91-.95.65-2.08.89-3.15.42-1.97-.86-1.38-3.86-.87-5.54l2.04-6.74c.15-.5.2-1.2.19-1.76,0-.85,2.19-1.16,4,.31.92.75-.22,3.1-.72,4.4l-2.2,5.74c-.12.31-.12,1.04-.05,1.35.19.87,2.72-1.46,2.91-1.65l2.34-2.44Z"/>
    <path class="st0" d="M138.05,85.7c-1.55.82-3.92,2.34-4.92,2.76-.76.32-1.59-.06-1.94-.78-.95-1.96,1.69-3.77,3.39-4.26,1.38-.4,2.8.07,3.62,1.27.18.27.11.87-.15,1.01Z"/>
    <path class="st0" d="M76.54,86.58l-2.21,1.46c-.63.42-1.5.26-1.98-.17s-.73-1.34-.32-2.03c.67-1.14,1.93-2.1,3.21-2.47,2.04-.59,3.81.74,3.76,1.61,0,.13-.25.28-.4.36-.73.4-1.39.79-2.07,1.24Z"/>
    <circle class="st1" cx="91.78" cy="38.57" r=".09"/>
    <path class="st1" d="M79.84,119.49l-1.39-2.28c-.12-.2-.79-.29-.9-.15l-.04,2.4h-1.77s.01-7.13.01-7.13l3.85.05c1.21.02,2.05,1,2.05,2.15,0,1.02-.47,1.75-1.59,2.12l1.95,2.82-2.17.02ZM79.13,115.58c.28-.02.66-.53.69-.77s-.22-.83-.48-.89c-.48-.1-1.15-.13-1.78-.16l-.02,1.92,1.59-.1Z"/>
    <path class="st1" d="M107.68,116.56h-3.21s.05,1.39.05,1.39h3.62s-.03,1.53-.03,1.53h-5.45s0-7.15,0-7.15h5.48s-.04,1.47-.04,1.47h-3.41c-.33.02-.32,1.27.02,1.27l2.88.03.1,1.45Z"/>
    <path class="st1" d="M89.17,117.96l-2.72-.03c-.46.26-.4,1.39-.86,1.52-.39.12-1.24.06-1.71.01l2.81-7.24,2.18.04,2.77,7.22h-1.94s-.55-1.52-.55-1.52ZM88.78,116.55l-.97-2.79-1.05,2.77,2.02.02Z"/>
    <path class="st1" d="M98.31,112.45c.56-.15,1.31-.16,1.88-.13l-2.77,7.11c-.67.11-1.44.1-2.16,0l-2.72-7.17,1.59.08c.07,0,.45.26.51.43l1.75,4.97,1.92-5.29Z"/>
    <polygon class="st1" points="70.68 119.43 69 119.43 68.99 113.98 66.72 113.94 66.74 112.4 73.05 112.43 73.07 113.95 70.67 113.96 70.68 119.43"/>
    <polygon class="st1" points="116.61 117.87 116.57 119.46 111.58 119.45 111.59 112.38 113.31 112.35 113.3 117.91 116.61 117.87"/>
    <path class="st1" d="M48.49,93.22l-5.76,1.65,4.29-6.71,3-4.4-1.09,8.5c-.03.27-.16.87-.44.95Z"/>
    <path class="st1" d="M-1.03-1.03h187.44v187.44H-1.03V-1.03ZM91.87,38.57s-.04-.09-.09-.09-.09.04-.09.09.04.09.09.09.09-.04.09-.09ZM83.64,56.03c.06-.33.16-.79.3-1.14l.71-1.7,1.86-4.42-2.48,2.87-.45.5c-.06-.81-1.39-1.25-1.37-2.5,0-.39.36-1.13.61-1.4l3.52-3.8c1.76-1.9,3.53-3.67,5.16-5.82l-23.49,16.37-3.9,2.73-8.45,5.99-5.23,3.9c-.17.12-.47.57-.65.67l-1.61.89c-.68.37-1.3.77-1.88,1.25-.52.43-.51,1.29.08,1.69.67.45,1.51.9,2.32,1.12,4.7,1.23,9.75,1.83,14.71,2.19-2.32-1.08-4.4-2.31-6.05-4.27-.15-.18-.46-.8-.29-.97,1.16-1.2,3.29-.13,4.48.64,4.91,3.18,8.42,4.33,14.21,5.17.87.13,1.71.17,2.61.12-3.05-.8-5.91-2.17-8.49-4.12-.71-.54-3.07-2.74-1.87-3.43,1.75-1,3.65.76,5.19,1.95,3.23,2.48,6.85,4.2,10.79,5.3,3.7,1.03,7.33,1.36,11.19,1.31,6.26-.07,12.29-1.22,18.06-3.58l3.38-1.38-4.11.68c-6.13,1.01-11.78,1.62-18.01,1.23-3.93-.25-9.31-1.47-12.85-3.2-.86-.42-1.61-.95-2.4-1.42l5.88-1.52c2.5-.64,9.57-1.76,12.06-1.81,6.98-.15,11.78-.13,18.64,1.24,1.32.26,4.37.98,5.07,2.11.82,1.31-3.05,3.9-3.99,4.48l-3.12,1.95.19.02c4.95-.86,9.53-2.02,13.61-5.02.45-.33,1.37-.67,1.83-.28.29.25.16,1.2,0,1.55-.71,1.5-1.82,2.45-3.25,3.36.96-.05,1.79-.12,2.63-.22l1.66-.21c1.74-.22,8.88-1.34,8.97-3.44.02-.37-.34-.98-.7-1.2-.81-.51-1.65-1.15-2.51-1.43l-2.04-.66c-7.4-2.39-16.22-4.17-24.01-4.92l-2.09-.2-2.85-.22-3.83-.19-4.04-.17c-2.44-.1-4.84-.09-7.28,0l-2.77.11-3.46.15-3.14.2c-6.01.38-11.89,1.19-17.79,2.32l-1.37.26c-3.48.67-6.83,1.48-10.25,2.41-.51.14-.97.34-1.49.53-.05-.08-.13-.22-.08-.13l2.59-1.24c.9-.43,1.78-.9,2.75-1.26,9.35-3.5,16.78-4.53,26.71-5.47.14-.59.39-1.27.77-1.78-.1.47-.21.77-.35,1.15l-.21.58,3.5-.2,4.92-.21h10.23s2.94.19,2.94.19l3.12.18,2.37.17c2.42.18,4.71.54,7.11.91,4.39.69,11.5,2.3,15.25,4.51l1.37.8,1.5.88c.29.17.53.31.86.46-.28-.3-.54-.55-.86-.81-2.16-1.77-4.21-3.42-6.53-5.01l-24.36-16.74-3.18-2.16-7.04-4.83c-.13-.09-.58-.19-.66-.18.48.86.85,1.61,1.27,2.49l1.16,2.48,4.44,9.47,3.22,6.97h-4.35c-.37,0-.87-.11-1.28-.18h-5.03c.16-.88-.76-.88-1.52-1.64-1.64-1.64-1.92-2.17-3.3-4.03-.5-.67-.82-2.06-1.7-1.78l-.72,1.7-.66,1.56c-.07.16-.3.44-.39.52ZM55.1,97.39c2.01,1.78,5.69.74,8.19.93.16.01.07.65-.07.77-1.11.94-2.49,1.87-3.81,2.52l-2.6,1.29c-.99.49-2.36,1.5-1.78,2.64.52,1.03,2.5.83,3.51.52,2.7-.82,5.12-2.23,7.17-4.14.65-.61,1.17-1.43,1.35-2.27.28-1.3-.27-2.52-1.46-3.09-.53-.25-1.31-.58-1.89-.61l-5.31-.28c.18-.31.45-.45.8-.66l9.38-5.58c.47-.28.82-.76.56-1.35s-.83-1.38-1.45-1.58c-1.08-.34-2.27-.06-3.28.41-1.71.8-3.31,1.74-4.83,2.84-.54.39-1.08.86-1.73,1.03l-3.92,1.02c-.2.05-.48.07-.95.11.04-.61.1-1.13.23-1.75.76-3.59,1.57-7.04,2.65-10.56.12-.39-.02-1.02-.4-1.22-1.25-.67-2.48-1.12-3.88-1.43-.62-.14-1.38.18-1.75.7-3.22,4.44-6.19,8.91-9.04,13.59l-2.43,4.01c-.14.23-.55.57-.81.63l-4.89,1.19c-1.88.46-2.63-.51-3.47.27s.5,3.74,3.09,3.95c1.83.15,3.67-1.07,3.36-.41l-1.58,3.51-1.87,4.07c-.11.24.07.83.28.96.19.11.73.03.91-.15,1.69-1.75,3.18-3.54,4.47-5.61l2.11-3.38c.26-.42.59-.91.86-1.29l4.99-1.94,2.72-1.1c-.05,3.5-.16,9.03,1.94,11.67.76.96,2.03,1.17,3.07.56.15-.09.27-.53.19-.7-.87-1.65-1.53-4.38-1.46-6.15l.25-6.01c0-.24.06-.98.29-1.07l2.85-1.13c-.67,1.23-2.13,2.88-.57,4.26ZM121.31,95.71l-.27,2.33c-.24,2.09-.68,4.07-.35,6.17.23,1.46.72,2.83,1.88,3.77,1.31,1.06,4.13,1.58,5.29.44l-1.19-.18c-2.06-.31-2.36-4.21-2.23-5.94.21-2.85.83-5.49,1.6-8.24l3.76-13.42c.41-1.47-2.83-2.17-3.92-2.21-.49-.02-1.2.51-1.52.94-2.32,3.18-4.41,6.29-6.43,9.69l-3.96,6.68c-.07.11-.22.25-.25.29s-.09-.28-.09-.37c.29-5.01,1.01-10.12,1.91-15.04l.33-1.79c.1-.53-.27-1.1-.82-1.32-2.35-.94-3.62-.67-6.02-.16l.55.42c.12.09.13.58.06.74l-2.82,6.53-2.53,5.68-.71,1.58-3.03,6.96c-.57,1.32-1.74,5.16-1.15,6.37.31.64,2.47,1.81,2.84.88l4.07-10.19,2.7-6.21c.41-.93.91-1.78,1.44-2.69l-.34,3.87-.17,2.43c-.12,1.68-.07,3.33.18,4.98.35,2.32,2.92,3.43,4.4,2.93.36-.12.79-.75.98-1.13l4.31-8.53c1.03-2.05,2.13-3.89,3.44-5.77-.55,3.46-1.51,5.98-1.92,9.52ZM76.54,86.58c.68-.45,1.33-.84,2.07-1.24.15-.08.39-.23.4-.36.05-.87-1.72-2.21-3.76-1.61-1.28.37-2.54,1.33-3.21,2.47-.41.69-.18,1.58.32,2.03s1.35.59,1.98.17l2.21-1.46ZM138.05,85.7c.26-.14.33-.74.15-1.01-.82-1.2-2.24-1.67-3.62-1.27-1.71.49-4.34,2.3-3.39,4.26.35.72,1.18,1.1,1.94.78,1-.42,3.37-1.94,4.92-2.76ZM153.92,98.08c-1.21,1.42-2.37,2.63-4.04,3.33-1.02.42-2.45.6-3.32-.22s-1.4-1.99-2.02-3.11c-.12-.22-.03-.71.16-.89l6.94-6.81c.19-.18.58-.62.51-.85-.28-.98-1.84-1.82-2.71-1.12-2.12,1.7-3.81,3.64-5.81,5.6l-1.12-4.89c-.08-.35-.31-.75-.51-1.12-1.62-.74-3.43.39-4.72,1.47-.2.17.11.81.24,1.04,1.15,2.11,2.03,4.22,2.77,6.51.09.32-.6.9-.82,1.15l-3.71,4.3c-.63.73-2.2,2.42-1.67,3.07,1.29,1.59,6.34-4.52,7.49-5.48.48.9.9,1.73,1.46,2.45,1.37,1.76,3.59,2.44,5.72,1.79,2.6-.8,5.11-3.5,5.15-6.21ZM87.08,98.4c-.3,2.1-.04,3.88,1.67,4.77,1.02.53,2.2.64,3.12,0,4.34-3.02,5.56-9.6,4.28-8.02l-3.3,4.07c-.51.62-1.42,1.29-2.06,1.59-.8.36-.74-2.43.25-4.27l1.73-3.22c.7-1.3-1.65-1.87-2.5-2.01-1.06-.19-1.55.42-1.98,1.18-1.08,1.88-2.34,3.56-3.74,5.23-.36.43-3.63,3.87-3.9,3.25-.63-1.5.77-4.38,1.7-5.77,2.12-3.15,5.27-5.53,9.23-4.87-.02-.11-.15-.44-.26-.56-1.68-1.76-4.52-2.47-6.94-1.54-1.39.54-2.61,1.34-3.67,2.33-2.28,2.15-3.39,4.82-4.25,7.75-.29,1.01-3.62,4.31-4.44,3.68-.26-.2-.1-1.04.02-1.36l1.9-5.08,1.44-3.91c.5-1.37-2.06-2.59-3.78-2.27-.94.17-.39,1-1.03,2.98l-1.84,5.67c-.38,1.16-.62,2.33-.82,3.56-.13.83.29,1.83.91,2.33,3.34,2.64,7.57-3.84,7.69-3.57.02.06.13.3.15.41.47,2.76,3.29,4.02,4.94,3.2,2.38-1.18,3.81-3.42,5.28-5.57.08,0,.23.02.17.02ZM136.51,97.92l-2.34,2.44c-.19.2-2.72,2.52-2.91,1.65-.07-.31-.07-1.04.05-1.35l2.2-5.74c.5-1.3,1.64-3.65.72-4.4-1.81-1.48-4.01-1.16-4-.31,0,.56-.04,1.26-.19,1.76l-2.04,6.74c-.51,1.68-1.1,4.68.87,5.54,1.07.47,2.2.23,3.15-.42,1.62-1.1,4.48-3.86,4.5-5.91ZM87.03,122.91h10.69s4.41-.2,4.41-.2c4.4-.21,8.67-.67,13.01-1.33,1.8-.27,3.36-.63,5.1-1.12l-1.49-.94,2.21-.37,8.81-1.31c-.36-.09-.71-.15-1.09-.21l-8.2-1.28c4.36-.91,8.63-1.36,13.03-1.66l2.25-.15,3.2-.2c.03.09-.01-.05-.04-.14l-4.96-1.13c-6.97-1.59-13.99-2.4-21.1-2.81l-4.16-.24-3.17-.16-5.82-.14-15.51-.02-5.49.17-4.39.19-2.74.17-2.22.17c-6.83.52-13.46,1.75-20.14,3.21l-3.26.71,2.62.2,14.4,1.65.95.13c-2.78.73-6.05.77-9.12,1.56,4.09.9,7.93.89,11.86,1.71l-1.51,1.06c3.56,1.04,8.59,1.61,12.31,1.91l2.7.21,2.92.18,3.94.18Z"/>
    <path class="st1" d="M82.55,58.77c.02-.25.12-.68.37-.91-.05.48-.1.74-.37.91Z"/>
    <path class="st1" d="M82.91,57.86c.06-.61.33-1.25.73-1.83-.02.68-.26,1.37-.73,1.83Z"/>
    <path class="st0" d="M79.13,115.58l-1.59.1.02-1.92c.64.02,1.3.05,1.78.16.26.06.5.65.48.89s-.41.76-.69.77Z"/>
    <polygon class="st0" points="88.78 116.55 86.77 116.53 87.81 113.76 88.78 116.55"/>
  </g>
</svg>